<svg width="32" height="32" viewBox="0 0 32 32" fill="none" xmlns="http://www.w3.org/2000/svg">
<path d="M30.8571 4H1.14286C0.839753 4 0.549062 4.11493 0.334735 4.31952C0.120408 4.52411 0 4.80158 0 5.09091V26.9091C0 27.1984 0.120408 27.4759 0.334735 27.6805C0.549062 27.8851 0.839753 28 1.14286 28H30.8571C31.1602 28 31.4509 27.8851 31.6653 27.6805C31.8796 27.4759 32 27.1984 32 26.9091V5.09091C32 4.80158 31.8796 4.52411 31.6653 4.31952C31.4509 4.11493 31.1602 4 30.8571 4ZM16.7014 17.952C16.5009 18.1009 16.254 18.1817 16 18.1817C15.746 18.1817 15.4991 18.1009 15.2986 17.952L4.11071 9.64614L5.51357 7.92386L16 15.7089L26.4864 7.92386L27.8893 9.64614L16.7014 17.952Z" fill="#FF5555"/>
</svg>
