<svg width="32" height="33" viewBox="0 0 32 33" fill="none" xmlns="http://www.w3.org/2000/svg">
<path d="M16 2.09961C8.04744 2.09961 1.59998 8.54707 1.59998 16.4996C1.59998 24.4397 8.06059 30.8996 16 30.8996C23.9518 30.8996 30.4 24.4515 30.4 16.4996C30.4 8.55953 23.9401 2.09961 16 2.09961ZM23.4769 18.715H15.1692C15.0958 18.715 15.0253 18.6858 14.9734 18.6339C14.9215 18.582 14.8923 18.5115 14.8923 18.4381V6.8073C14.8923 6.73386 14.9215 6.66342 14.9734 6.61149C15.0253 6.55955 15.0958 6.53038 15.1692 6.53038H16.8307C16.9042 6.53038 16.9746 6.55955 17.0266 6.61149C17.0785 6.66342 17.1077 6.73386 17.1077 6.8073V16.4996H23.4769C23.5503 16.4996 23.6208 16.5288 23.6727 16.5807C23.7246 16.6327 23.7538 16.7031 23.7538 16.7765V18.4381C23.7538 18.5115 23.7246 18.582 23.6727 18.6339C23.6208 18.6858 23.5503 18.715 23.4769 18.715Z" fill="#FF5555"/>
</svg>
