<svg width="32" height="33" viewBox="0 0 32 33" fill="none" xmlns="http://www.w3.org/2000/svg">
<path d="M31.1288 24.6529C30.7746 24.2557 29.524 23.0814 27.2249 21.5278C24.9089 19.9606 23.2009 18.9835 22.7109 18.7556C22.6678 18.7354 22.6202 18.728 22.5733 18.7342C22.5264 18.7404 22.482 18.7599 22.4449 18.7906C21.6557 19.4385 20.327 20.6285 20.2558 20.6928C19.7957 21.1078 19.7957 21.1078 19.4191 20.9785C18.7568 20.7499 16.6993 19.5999 14.9065 17.7084C13.1136 15.817 11.9648 13.5976 11.7476 12.9012C11.6235 12.5041 11.6235 12.5041 12.0191 12.0198C12.0801 11.9448 13.2114 10.5462 13.8268 9.71614C13.856 9.67706 13.8745 9.63033 13.8804 9.581C13.8863 9.53167 13.8792 9.48159 13.8601 9.43614C13.6436 8.9197 12.7153 7.12252 11.2265 4.68462C9.74851 2.26529 8.63427 0.948833 8.25697 0.575969C8.22235 0.541578 8.17955 0.517653 8.1331 0.506716C8.08664 0.495779 8.03824 0.498235 7.993 0.513825C6.67414 0.990895 5.40165 1.59963 4.1929 2.33172C3.02601 3.04575 1.92128 3.86681 0.891562 4.78533C0.855617 4.8175 0.828668 4.85936 0.813605 4.90642C0.798542 4.95349 0.795934 5.00398 0.806059 5.05248C0.947885 5.74821 1.6258 8.65255 3.72942 12.6755C5.8758 16.7813 7.36327 18.8849 10.5153 22.1914C13.6674 25.4979 15.7289 27.1579 19.6335 29.4172C23.4553 31.6316 26.2158 32.3459 26.8754 32.4937C26.9216 32.5043 26.9697 32.5015 27.0145 32.4856C27.0592 32.4698 27.0991 32.4415 27.1299 32.4037C28.0023 31.3198 28.7821 30.157 29.4602 28.9286C30.1555 27.6562 30.7338 26.3168 31.1872 24.9286C31.2017 24.8813 31.2039 24.8308 31.1937 24.7824C31.1834 24.7339 31.161 24.6892 31.1288 24.6529Z" fill="#FF5555"/>
</svg>
