<svg width="50" height="50" viewBox="0 0 50 50" fill="none" xmlns="http://www.w3.org/2000/svg">
<path d="M31.1429 18.6667C30.5906 18.6667 30.1429 18.219 30.1429 17.6667V7C30.1429 6.44772 29.6951 6 29.1429 6H8C7.44771 6 7 6.44772 7 7V43C7 43.5523 7.44772 44 8 44H16.2857C16.838 44 17.2857 43.5523 17.2857 43V37.4C17.2857 36.8477 17.7334 36.4 18.2857 36.4H18.8571C19.4094 36.4 19.8571 36.8477 19.8571 37.4V43C19.8571 43.5523 20.3049 44 20.8571 44H42C42.5523 44 43 43.5523 43 43V19.6667C43 19.1144 42.5523 18.6667 42 18.6667H31.1429ZM13.4286 37.9333C13.4286 38.4856 12.9809 38.9333 12.4286 38.9333H11.8571C11.3049 38.9333 10.8571 38.4856 10.8571 37.9333V37.4C10.8571 36.8477 11.3049 36.4 11.8571 36.4H12.4286C12.9809 36.4 13.4286 36.8477 13.4286 37.4V37.9333ZM13.4286 31.6C13.4286 32.1523 12.9809 32.6 12.4286 32.6H11.8571C11.3049 32.6 10.8571 32.1523 10.8571 31.6V31.0667C10.8571 30.5144 11.3049 30.0667 11.8571 30.0667H12.4286C12.9809 30.0667 13.4286 30.5144 13.4286 31.0667V31.6ZM13.4286 25.2667C13.4286 25.819 12.9809 26.2667 12.4286 26.2667H11.8571C11.3049 26.2667 10.8571 25.819 10.8571 25.2667V24.7333C10.8571 24.181 11.3049 23.7333 11.8571 23.7333H12.4286C12.9809 23.7333 13.4286 24.181 13.4286 24.7333V25.2667ZM13.4286 18.9333C13.4286 19.4856 12.9809 19.9333 12.4286 19.9333H11.8571C11.3049 19.9333 10.8571 19.4856 10.8571 18.9333V18.4C10.8571 17.8477 11.3049 17.4 11.8571 17.4H12.4286C12.9809 17.4 13.4286 17.8477 13.4286 18.4V18.9333ZM13.4286 12.6C13.4286 13.1523 12.9809 13.6 12.4286 13.6H11.8571C11.3049 13.6 10.8571 13.1523 10.8571 12.6V12.0667C10.8571 11.5144 11.3049 11.0667 11.8571 11.0667H12.4286C12.9809 11.0667 13.4286 11.5144 13.4286 12.0667V12.6ZM23.7143 12.0667C23.7143 11.5144 24.162 11.0667 24.7143 11.0667H25.2857C25.838 11.0667 26.2857 11.5144 26.2857 12.0667V12.6C26.2857 13.1523 25.838 13.6 25.2857 13.6H24.7143C24.162 13.6 23.7143 13.1523 23.7143 12.6V12.0667ZM19.8571 31.6C19.8571 32.1523 19.4094 32.6 18.8571 32.6H18.2857C17.7334 32.6 17.2857 32.1523 17.2857 31.6V31.0667C17.2857 30.5144 17.7334 30.0667 18.2857 30.0667H18.8571C19.4094 30.0667 19.8571 30.5144 19.8571 31.0667V31.6ZM19.8571 25.2667C19.8571 25.819 19.4094 26.2667 18.8571 26.2667H18.2857C17.7334 26.2667 17.2857 25.819 17.2857 25.2667V24.7333C17.2857 24.181 17.7334 23.7333 18.2857 23.7333H18.8571C19.4094 23.7333 19.8571 24.181 19.8571 24.7333V25.2667ZM19.8571 18.9333C19.8571 19.4856 19.4094 19.9333 18.8571 19.9333H18.2857C17.7334 19.9333 17.2857 19.4856 17.2857 18.9333V18.4C17.2857 17.8477 17.7334 17.4 18.2857 17.4H18.8571C19.4094 17.4 19.8571 17.8477 19.8571 18.4V18.9333ZM19.8571 12.6C19.8571 13.1523 19.4094 13.6 18.8571 13.6H18.2857C17.7334 13.6 17.2857 13.1523 17.2857 12.6V12.0667C17.2857 11.5144 17.7334 11.0667 18.2857 11.0667H18.8571C19.4094 11.0667 19.8571 11.5144 19.8571 12.0667V12.6ZM26.2857 37.9333C26.2857 38.4856 25.838 38.9333 25.2857 38.9333H24.7143C24.162 38.9333 23.7143 38.4856 23.7143 37.9333V37.4C23.7143 36.8477 24.162 36.4 24.7143 36.4H25.2857C25.838 36.4 26.2857 36.8477 26.2857 37.4V37.9333ZM26.2857 31.6C26.2857 32.1523 25.838 32.6 25.2857 32.6H24.7143C24.162 32.6 23.7143 32.1523 23.7143 31.6V31.0667C23.7143 30.5144 24.162 30.0667 24.7143 30.0667H25.2857C25.838 30.0667 26.2857 30.5144 26.2857 31.0667V31.6ZM26.2857 25.2667C26.2857 25.819 25.838 26.2667 25.2857 26.2667H24.7143C24.162 26.2667 23.7143 25.819 23.7143 25.2667V24.7333C23.7143 24.181 24.162 23.7333 24.7143 23.7333H25.2857C25.838 23.7333 26.2857 24.181 26.2857 24.7333V25.2667ZM26.2857 18.9333C26.2857 19.4856 25.838 19.9333 25.2857 19.9333H24.7143C24.162 19.9333 23.7143 19.4856 23.7143 18.9333V18.4C23.7143 17.8477 24.162 17.4 24.7143 17.4H25.2857C25.838 17.4 26.2857 17.8477 26.2857 18.4V18.9333ZM40.4286 40.4667C40.4286 41.019 39.9809 41.4667 39.4286 41.4667H31.1429C30.5906 41.4667 30.1429 41.019 30.1429 40.4667V39.9333C30.1429 39.3811 30.5906 38.9333 31.1429 38.9333H31.7143C32.2666 38.9333 32.7143 38.4856 32.7143 37.9333V37.4C32.7143 36.8477 32.2666 36.4 31.7143 36.4H31.1429C30.5906 36.4 30.1429 35.9523 30.1429 35.4V33.6C30.1429 33.0477 30.5906 32.6 31.1429 32.6H31.7143C32.2666 32.6 32.7143 32.1523 32.7143 31.6V31.0667C32.7143 30.5144 32.2666 30.0667 31.7143 30.0667H31.1429C30.5906 30.0667 30.1429 29.619 30.1429 29.0667V27.2667C30.1429 26.7144 30.5906 26.2667 31.1429 26.2667H31.7143C32.2666 26.2667 32.7143 25.819 32.7143 25.2667V24.7333C32.7143 24.181 32.2666 23.7333 31.7143 23.7333H31.1429C30.5906 23.7333 30.1429 23.2856 30.1429 22.7333V22.2C30.1429 21.6477 30.5906 21.2 31.1429 21.2H39.4286C39.9809 21.2 40.4286 21.6477 40.4286 22.2V40.4667Z" fill="#FF5555"/>
<path d="M37.8571 37.4C37.8571 36.8477 37.4094 36.4 36.8571 36.4H36.2857C35.7334 36.4 35.2857 36.8477 35.2857 37.4V37.9333C35.2857 38.4856 35.7334 38.9333 36.2857 38.9333H36.8571C37.4094 38.9333 37.8571 38.4856 37.8571 37.9333V37.4Z" fill="#FF5555"/>
<path d="M37.8571 31.0667C37.8571 30.5144 37.4094 30.0667 36.8571 30.0667H36.2857C35.7334 30.0667 35.2857 30.5144 35.2857 31.0667V31.6C35.2857 32.1523 35.7334 32.6 36.2857 32.6H36.8571C37.4094 32.6 37.8571 32.1523 37.8571 31.6V31.0667Z" fill="#FF5555"/>
<path d="M37.8571 24.7333C37.8571 24.181 37.4094 23.7333 36.8571 23.7333H36.2857C35.7334 23.7333 35.2857 24.181 35.2857 24.7333V25.2667C35.2857 25.819 35.7334 26.2667 36.2857 26.2667H36.8571C37.4094 26.2667 37.8571 25.819 37.8571 25.2667V24.7333Z" fill="#FF5555"/>
</svg>
