<svg width="72" height="70" viewBox="0 0 72 70" fill="none" xmlns="http://www.w3.org/2000/svg">
<path d="M0.934628 17.0645C0.725193 17.2316 0.603222 17.485 0.603222 17.7529V28.825C0.603222 39.6669 0.61703 40.321 0.851776 40.5576C1.08652 40.7942 2.16359 40.8082 23.2355 40.8082C44.8183 40.8082 45.3845 40.8082 45.6745 40.5437C45.8592 40.3753 45.9645 40.1368 45.9645 39.8868V17.7922C45.9645 17.5229 45.8548 17.2651 45.6607 17.0784C45.3569 16.8 45.3154 16.8 23.3046 16.8C1.80457 16.8 1.25223 16.8 0.934628 17.0645ZM7.42467 19.9315C8.2808 20.3769 8.2808 20.2934 8.23937 29.0477L8.20111 36.4014C8.19909 36.7888 8.03665 37.158 7.75244 37.4212L7.68703 37.4818C7.09326 38.0107 6.47187 38.1081 5.78144 37.7463C4.93912 37.3009 4.95293 37.4818 4.95293 28.8389C4.95293 20.3491 4.93912 20.4604 5.67098 19.9455C6.05762 19.6671 6.91375 19.6532 7.42467 19.9315ZM14.0666 19.9315C14.9089 20.3769 14.8951 20.196 14.8951 28.8389C14.8951 37.4818 14.9089 37.3009 14.0666 37.7463C13.3762 38.1081 12.7548 38.0107 12.161 37.4818L12.0956 37.4212C11.8114 37.158 11.649 36.7888 11.6469 36.4014L11.6087 29.0477C11.5811 21.8939 11.5949 21.0589 11.802 20.6135C12.1886 19.7784 13.1967 19.4862 14.0666 19.9315ZM21.0399 20.1821C21.3713 20.5161 21.5232 20.8223 21.5923 21.2676C21.6337 21.6017 21.6613 25.2342 21.6337 29.326C21.5923 37.4262 21.6199 37.1756 20.7914 37.6767C20.2252 38.0246 19.6453 38.0246 19.0791 37.6767C18.2644 37.1756 18.2782 37.4122 18.2368 29.4652C18.2092 25.443 18.2368 21.8104 18.2782 21.4068C18.3611 20.7944 18.4715 20.5439 18.8306 20.1821C19.2172 19.7924 19.3829 19.7228 19.9353 19.7228C20.4876 19.7228 20.6533 19.7924 21.0399 20.1821ZM27.4471 19.9315C28.3033 20.3769 28.3033 20.2934 28.2618 29.0477L28.2236 36.4014C28.2216 36.7888 28.0591 37.158 27.7749 37.4212L27.7095 37.4818C27.1157 38.0107 26.4943 38.1081 25.8039 37.7463C24.9616 37.3009 24.9754 37.4818 24.9754 28.8389C24.9754 20.2377 24.9616 20.3769 25.7763 19.9455C26.2596 19.681 26.95 19.6671 27.4471 19.9315ZM34.0891 19.9315C34.9314 20.3769 34.9176 20.196 34.9176 28.8389C34.9176 37.4818 34.9314 37.3009 34.0891 37.7463C33.3986 38.1081 32.7772 38.0107 32.1835 37.4818L32.1212 37.4242C31.8352 37.1592 31.6726 36.787 31.6726 36.3971V28.9363C31.6726 22.5342 31.714 20.8084 31.8521 20.53C32.2525 19.7924 33.2882 19.514 34.0891 19.9315ZM40.9796 20.0846C41.2143 20.2795 41.4628 20.6692 41.5457 20.9475C41.7252 21.6295 41.739 36.0344 41.5457 36.7163C41.2695 37.7323 40.1372 38.2334 39.2259 37.7602C38.3283 37.287 38.3697 37.7463 38.3697 28.7971V21.2459C38.3697 20.8765 38.5157 20.522 38.7759 20.2598L38.8392 20.196C39.4606 19.5697 40.3305 19.5279 40.9796 20.0846Z" fill="#FF5555"/>
<path d="M50.0242 23.8424C49.7894 23.9538 49.5271 24.2043 49.4304 24.3991C49.3199 24.6497 49.2785 27.5028 49.2785 34.406V42.6788C49.2785 43.452 48.6517 44.0788 47.8785 44.0788H25.5968C5.10482 44.0788 1.846 44.1067 1.41793 44.2876C0.63084 44.6216 0.53418 45.0392 0.53418 48.1846C0.53418 51.33 0.63084 51.7475 1.41793 52.0815C2.05313 52.3599 5.47766 52.3738 5.82287 52.1094C5.96096 52.012 6.11285 51.6083 6.1957 51.1212C6.47187 49.4093 7.39705 48.1707 8.94361 47.433C10.0345 46.9181 11.5811 46.9181 12.6996 47.4469C14.1633 48.1289 15.2127 49.5764 15.406 51.1769C15.5027 52.0537 15.7236 52.2903 16.4279 52.2903C17.2978 52.2903 17.4773 52.1233 17.574 51.2186C17.9054 48.3655 20.7223 46.417 23.3736 47.1964C25.2654 47.7531 26.4805 49.131 26.7843 51.0795C26.8672 51.5527 26.9914 52.012 27.0743 52.1094C27.2538 52.3321 35.3318 52.3738 35.7323 52.1511C35.9118 52.0676 36.0085 51.7893 36.0775 51.2186C36.257 49.5624 37.2788 48.1428 38.7702 47.4469C39.8058 46.9598 41.5457 46.932 42.5399 47.3913C43.9898 48.0454 45.0393 49.4511 45.2878 51.0934C45.3707 51.5944 45.5226 52.012 45.6469 52.1233C45.9783 52.3738 54.9262 52.3738 55.2576 52.1094C55.4095 52.012 55.5476 51.5944 55.6443 51.0516C55.8928 49.4511 56.8318 48.1428 58.2403 47.4609C58.9031 47.1268 59.1793 47.0712 60.1873 47.0712C61.6096 47.0712 62.6038 47.4748 63.5014 48.4073C64.247 49.1866 64.5784 49.8686 64.8132 51.0655C64.8907 51.5009 65.0126 51.9093 65.1149 52.0827C65.1521 52.1459 65.2188 52.1824 65.2911 52.1949C65.6054 52.2496 66.5401 52.2882 67.5749 52.2764C71.248 52.2764 71.2342 52.2903 71.2342 48.2124C71.2342 44.9696 71.1513 44.6077 70.2814 44.2598C69.9471 44.125 69.7272 43.8019 69.7243 43.4416L69.6499 34.0079C69.6475 33.7061 69.5476 33.4132 69.3652 33.1728L69.2872 33.0699C67.9339 31.2745 61.7339 24.0651 61.3887 23.8563C60.9882 23.6476 60.4497 23.6197 55.6995 23.6197C51.267 23.6197 50.3832 23.6615 50.0242 23.8424ZM59.5245 26.9878C60.0078 27.3636 64.6061 33.2787 64.6061 33.5153C64.6061 33.6544 64.537 33.8075 64.4542 33.8493C64.3713 33.905 61.7201 33.9328 58.5579 33.9328C54.2496 33.905 52.7859 33.8632 52.703 33.7379C52.5373 33.4735 52.565 27.4054 52.7307 27.0853C52.8688 26.8347 53.0621 26.8208 56.0862 26.8208C58.4474 26.8208 59.3588 26.8626 59.5245 26.9878Z" fill="#FF5555"/>
<path d="M10.0069 48.95C9.42691 49.131 8.7641 49.632 8.40508 50.1748C8.01844 50.7315 7.88035 52.012 8.1151 52.7496C8.34984 53.4316 9.15074 54.1831 9.96545 54.4615C11.7329 55.0599 13.6523 53.6403 13.6523 51.7336C13.6523 49.8547 11.7744 48.4212 10.0069 48.95Z" fill="#FF5555"/>
<path d="M21.3161 48.9779C18.2368 50.1052 18.9686 54.5867 22.2275 54.5728C25.0859 54.545 26.1077 50.7315 23.6498 49.2841C22.9317 48.8665 21.9651 48.7274 21.3161 48.9779Z" fill="#FF5555"/>
<path d="M39.7506 48.9918C39.0463 49.2284 38.1488 50.2026 37.9555 50.9264C37.4584 52.7913 38.8116 54.5867 40.7172 54.5728C42.0566 54.5728 43.1061 53.7099 43.4789 52.3181C43.6446 51.6501 43.4927 50.8429 43.037 50.0913C42.4709 49.1588 40.8553 48.616 39.7506 48.9918Z" fill="#FF5555"/>
<path d="M58.986 49.1588C58.1436 49.5903 57.7156 50.1331 57.4946 51.0238C57.0251 52.8609 58.337 54.5867 60.1873 54.5728C62.5624 54.5589 63.9156 51.9006 62.4933 50.0356C61.6096 48.8805 60.2149 48.5325 58.986 49.1588Z" fill="#FF5555"/>
</svg>
