<svg width="180" height="217" viewBox="0 0 180 217" fill="none" xmlns="http://www.w3.org/2000/svg">
<path d="M46.0763 3.07083L2.57298 185.227C1.70317 188.869 5.86668 191.602 8.86278 189.356L139.198 91.6537C139.911 91.1194 140.425 90.3625 140.659 89.5029L163.627 5.0497C164.319 2.5058 162.403 0 159.767 0H49.9668C48.1156 0 46.5063 1.27026 46.0763 3.07083Z" fill="white"/>
<path d="M89.7268 72.068L57.5776 206.242C56.7055 209.882 60.8634 212.619 63.8617 210.379L160.184 138.409C160.899 137.875 161.414 137.118 161.649 136.258L178.621 74.0529C179.316 71.5082 177.4 69 174.762 69H93.6167C91.7665 69 90.1579 70.2688 89.7268 72.068Z" fill="#0A090A"/>
</svg>
