<svg width="239" height="69" viewBox="0 0 239 69" fill="none" xmlns="http://www.w3.org/2000/svg">
<g clip-path="url(#clip0_49_419)">
<path d="M78.1986 0H18.6903C17.2939 0 16.0587 0.970313 15.7364 2.31797L0 67.1133V67.3289C0 68.0836 0.590787 68.6766 1.3427 68.7305L1.71865 68.7844C1.98719 68.8383 2.25573 68.7844 2.52427 68.6766C24.276 58.9734 46.0813 49.2703 67.833 39.5672C68.1016 39.4594 68.5849 39.2437 68.9609 38.8664C69.6591 38.1656 69.8202 37.2492 69.8739 37.0875C70.1962 35.6859 74.1706 21.5625 79.6488 1.94063C79.9173 0.970318 79.2191 0 78.1986 0Z" fill="#FF5555"/>
<path d="M37.0853 16.3605H26.4511L27.9012 8.00508H58.4073L56.9572 16.3605H46.323L41.543 43.5832H32.3053L37.0853 16.3605Z" fill="white"/>
<path d="M103.065 38.9203H94.3647L93.0758 40.9688H85.7715L101.508 15.6328H103.602L110.423 40.9688H103.656L103.065 38.9203ZM100.649 28.1391L97.5872 33.6914H101.776L100.649 28.1391Z" fill="white"/>
<path d="M137.6 16.0641L133.25 40.9687H126.805L130.135 21.9398H124.549C123.636 26.8992 122.669 30.7805 121.649 33.5836C120.628 36.3867 119.393 38.3812 118.05 39.6211C116.654 40.8609 114.935 41.4539 112.894 41.4539C112.518 41.4539 112.142 41.4 111.659 41.3461C111.176 41.2383 110.8 41.1305 110.478 41.0226L111.444 35.5242C111.605 35.5781 111.928 35.5781 112.411 35.5781C113.7 35.5781 114.828 34.4461 115.795 32.2359C116.761 29.9719 117.674 26.3601 118.534 21.3469L119.447 16.118L137.6 16.0641Z" fill="white"/>
<path d="M142.541 16.0641H148.986L147.643 23.8266H150.436C153.282 23.8266 155.538 24.5812 157.257 26.0367C158.922 27.4922 159.781 29.4328 159.781 31.9125C159.781 33.6914 159.298 35.3086 158.384 36.6562C157.471 38.0578 156.182 39.082 154.518 39.8906C152.853 40.6453 150.919 41.0227 148.771 41.0227H138.19L142.541 16.0641ZM149.899 35.3086C150.919 35.3086 151.671 35.0391 152.262 34.5C152.853 33.9609 153.121 33.2062 153.121 32.2898C153.121 31.4273 152.853 30.7266 152.369 30.1875C151.886 29.7023 151.188 29.4328 150.328 29.4328H146.676L145.602 35.2547L149.899 35.3086Z" fill="white"/>
<path d="M184.755 16.0641L180.405 40.9688H173.96L175.249 33.6375H174.068C173.692 33.6375 173.369 33.6375 173.155 33.5836L167.086 40.9688H159.781L167.3 31.8586C166.172 31.1039 165.367 30.2414 164.776 29.1094C164.185 28.0313 163.917 26.7914 163.917 25.3898C163.917 23.557 164.4 21.9398 165.367 20.4844C166.334 19.0828 167.73 17.9508 169.502 17.1961C171.275 16.4414 173.316 16.0102 175.625 16.0102L184.755 16.0641ZM177.236 21.7242H174.39C173.208 21.7242 172.241 21.9938 171.543 22.5867C170.845 23.1797 170.469 23.9344 170.469 24.9586C170.469 25.875 170.791 26.6297 171.436 27.1688C172.08 27.7078 172.94 27.9773 174.014 27.9773H176.162L177.236 21.7242Z" fill="white"/>
<path d="M189.696 16.0641H196.141L194.584 25.1742H203.66L205.218 16.0641H211.663L207.312 40.9688H200.867L202.586 30.9961H193.509L191.791 40.9688H185.346L189.696 16.0641Z" fill="white"/>
<path d="M219.342 39.8906C217.463 38.8664 215.959 37.4109 214.885 35.5781C213.811 33.7453 213.273 31.643 213.273 29.3789C213.273 26.8453 213.918 24.5813 215.207 22.4789C216.496 20.3766 218.215 18.7055 220.417 17.5195C222.619 16.2797 225.035 15.6867 227.613 15.6867C230.191 15.6867 232.501 16.3336 234.434 17.5734C236.368 18.8133 237.818 20.5922 238.731 22.8563L233.468 25.9828C232.179 23.0719 230.084 21.6164 227.184 21.6164C225.787 21.6164 224.498 21.9398 223.424 22.5867C222.296 23.2336 221.437 24.0961 220.793 25.2281C220.148 26.3602 219.826 27.6539 219.826 29.0555C219.826 30.9961 220.417 32.5594 221.544 33.6914C222.672 34.8773 224.23 35.4703 226.163 35.4703C227.452 35.4703 228.688 35.1469 229.762 34.5539C230.836 33.9609 231.856 32.9906 232.823 31.6969L237.388 35.2547C236.046 37.1953 234.381 38.7586 232.393 39.7828C230.353 40.8609 228.151 41.4 225.734 41.4C223.371 41.4539 221.222 40.9148 219.342 39.8906Z" fill="white"/>
<path d="M189.696 16.0641L185.346 40.9688H191.791C192.382 37.6266 192.972 34.2843 193.563 30.996C196.571 30.996 199.578 30.996 202.586 31.0499C202.962 29.1093 203.284 27.1688 203.66 25.1742H194.584C195.121 22.1555 195.658 19.1366 196.195 16.064C193.993 16.064 191.844 16.0641 189.696 16.0641Z" fill="#FF5555"/>
<path d="M184.755 16.0641L180.351 40.9686H173.906L178.203 16.064" fill="#FF5555"/>
<path d="M86.1309 48.5999H90.3023V53.9553H89.6718V49.1679H86.7614V53.9553H86.1309V48.5999Z" fill="white"/>
<path d="M91.7764 48.5999H93.6518C93.9972 48.5999 94.2963 48.6675 94.5493 48.8027C94.8082 48.9326 95.0074 49.1165 95.1476 49.3545C95.2878 49.5871 95.3576 49.8522 95.3576 50.1497C95.3576 50.4526 95.2878 50.7231 95.1476 50.9611C95.0074 51.1992 94.8082 51.3858 94.5493 51.5211C94.2963 51.6509 93.9972 51.7158 93.6518 51.7158H92.4069V53.9553H91.7764V48.5999ZM93.6357 51.1478C93.9752 51.1478 94.2367 51.0585 94.4199 50.88C94.6089 50.6961 94.7029 50.4554 94.7029 50.1578C94.7029 49.8657 94.6089 49.6277 94.4199 49.4438C94.2367 49.2599 93.9752 49.1679 93.6357 49.1679H92.4069V51.1478H93.6357Z" fill="white"/>
<path d="M100.743 48.5106V53.9553H100.113V49.8008L96.6363 54.0448H96.4102V48.5999H97.0407V52.7544L100.517 48.5106H100.743Z" fill="white"/>
<path d="M102.213 48.5999H105.633V49.1679H102.844V50.807H104.978V51.375H102.844V53.3873H105.73V53.9553H102.213V48.5999Z" fill="white"/>
<path d="M111.699 48.5106V53.9553H111.069V50.1173L109.363 52.4379H109.137L107.423 50.1011V53.9553H106.792V48.5106H107.019L109.242 51.6022L111.481 48.5106H111.699Z" fill="white"/>
<path d="M119.212 48.5999V53.9553H118.582V51.797C118.404 51.8781 118.199 51.9376 117.967 51.9754C117.741 52.0079 117.517 52.0241 117.296 52.0241C116.628 52.0241 116.111 51.8537 115.744 51.5129C115.377 51.1721 115.194 50.6609 115.194 49.9793V48.5999H115.825V49.9388C115.825 50.4635 115.952 50.8476 116.205 51.091C116.458 51.3344 116.828 51.4561 117.313 51.4561C117.528 51.4561 117.749 51.4372 117.975 51.3993C118.207 51.3614 118.409 51.302 118.582 51.2208V48.5999H119.212Z" fill="white"/>
<path d="M120.68 48.5999H124.1V49.1679H121.31V50.807H123.445V51.375H121.31V53.3873H124.196V53.9553H120.68V48.5999Z" fill="white"/>
<path d="M125.259 48.5999H127.134C127.479 48.5999 127.779 48.6675 128.031 48.8027C128.29 48.9326 128.49 49.1165 128.63 49.3545C128.77 49.5871 128.84 49.8522 128.84 50.1497C128.84 50.4526 128.77 50.7231 128.63 50.9611C128.49 51.1992 128.29 51.3858 128.031 51.5211C127.779 51.6509 127.479 51.7158 127.134 51.7158H125.889V53.9553H125.259V48.5999ZM127.118 51.1478C127.458 51.1478 127.719 51.0585 127.902 50.88C128.091 50.6961 128.185 50.4554 128.185 50.1578C128.185 49.8657 128.091 49.6277 127.902 49.4438C127.719 49.2599 127.458 49.1679 127.118 49.1679H125.889V51.1478H127.118Z" fill="white"/>
<path d="M129.893 48.5999H130.523V50.807H133.515V48.5999H134.145V53.9553H133.515V51.375H130.523V53.9553H129.893V48.5999Z" fill="white"/>
<path d="M135.616 48.5999H136.247V50.7096H137.419C137.78 50.7096 138.096 50.78 138.365 50.9206C138.635 51.0559 138.839 51.2479 138.979 51.4967C139.125 51.7401 139.198 52.0187 139.198 52.3325C139.198 52.6462 139.125 52.9275 138.979 53.1764C138.839 53.4198 138.635 53.6118 138.365 53.7525C138.096 53.8877 137.78 53.9553 137.419 53.9553H135.616V48.5999ZM137.411 53.3873C137.772 53.3873 138.052 53.2899 138.252 53.0952C138.451 52.9005 138.551 52.6489 138.551 52.3406C138.551 52.0269 138.451 51.7726 138.252 51.5778C138.052 51.3831 137.772 51.2857 137.411 51.2857H136.247V53.3873H137.411ZM140.257 48.5999H140.888V53.9553H140.257V48.5999Z" fill="white"/>
<path d="M145.48 53.9553L144.041 51.7564L142.594 53.9553H141.858L143.694 51.2127L141.988 48.5999H142.716L144.041 50.6852L145.359 48.5999H146.087L144.405 51.2208L146.216 53.9553H145.48Z" fill="white"/>
<path d="M153.79 48.5106V53.9553H153.16V49.8008L149.684 54.0448H149.457V48.5999H150.088V52.7544L153.564 48.5106H153.79Z" fill="white"/>
<path d="M161.721 53.9553H157.525V48.5999H158.156V53.3873H161.066V48.5999H161.697V53.3873H162.352V55.0992H161.721V53.9553Z" fill="white"/>
<path d="M166.174 51.0099C166.502 51.1072 166.759 51.2803 166.942 51.5291C167.125 51.7726 167.217 52.0674 167.217 52.4136C167.217 52.7112 167.15 52.9762 167.015 53.2088C166.88 53.4414 166.683 53.6253 166.425 53.7606C166.171 53.8904 165.872 53.9553 165.527 53.9553H163.328V48.5999H165.164C165.627 48.5999 165.996 48.727 166.271 48.9813C166.546 49.2355 166.683 49.5601 166.683 49.955C166.683 50.1768 166.637 50.377 166.546 50.5554C166.459 50.734 166.335 50.8854 166.174 51.0099ZM163.959 49.1679V50.8313H165.099C165.4 50.8313 165.632 50.7556 165.794 50.6041C165.956 50.4526 166.036 50.2498 166.036 49.9956C166.036 49.7413 165.956 49.5411 165.794 49.3951C165.638 49.2436 165.406 49.1679 165.099 49.1679H163.959ZM165.463 53.3873C165.813 53.3873 166.085 53.2981 166.279 53.1195C166.473 52.9356 166.57 52.6949 166.57 52.3974C166.57 52.0999 166.473 51.8619 166.279 51.6833C166.085 51.4994 165.813 51.4074 165.463 51.4074H163.959V53.3873H165.463Z" fill="white"/>
<path d="M168.31 48.5999H171.73V49.1679H168.941V50.807H171.075V51.375H168.941V53.3873H171.827V53.9553H168.31V48.5999Z" fill="white"/>
<path d="M174.183 49.1679H172.308V48.5999H176.697V49.1679H174.814V53.9553H174.183V49.1679Z" fill="white"/>
<path d="M177.587 48.5999H178.217V50.807H181.208V48.5999H181.839V53.9553H181.208V51.375H178.217V53.9553H177.587V48.5999Z" fill="white"/>
<path d="M183.31 48.5999H183.941V50.7096H185.113C185.474 50.7096 185.789 50.78 186.059 50.9206C186.329 51.0559 186.533 51.2479 186.673 51.4967C186.819 51.7401 186.892 52.0187 186.892 52.3325C186.892 52.6462 186.819 52.9275 186.673 53.1764C186.533 53.4198 186.329 53.6118 186.059 53.7525C185.789 53.8877 185.474 53.9553 185.113 53.9553H183.31V48.5999ZM185.105 53.3873C185.466 53.3873 185.746 53.2899 185.946 53.0952C186.146 52.9005 186.245 52.6489 186.245 52.3406C186.245 52.0269 186.146 51.7726 185.946 51.5778C185.746 51.3831 185.466 51.2857 185.105 51.2857H183.941V53.3873H185.105ZM187.951 48.5999H188.581V53.9553H187.951V48.5999Z" fill="white"/>
<path d="M193.173 53.9553L191.734 51.7564L190.288 53.9553H189.552L191.387 51.2127L189.681 48.5999H190.408L191.734 50.6852L193.052 48.5999H193.78L192.098 51.2208L193.909 53.9553H193.173Z" fill="white"/>
<path d="M202.058 48.5106V53.9553H201.427V50.1173L199.721 52.4379H199.495L197.781 50.1011V53.9553H197.15V48.5106H197.376L199.6 51.6022L201.839 48.5106H202.058Z" fill="white"/>
<path d="M203.529 48.5999H206.949V49.1679H204.16V50.807H206.294V51.375H204.16V53.3873H207.046V53.9553H203.529V48.5999Z" fill="white"/>
<path d="M209.402 49.1679H207.526V48.5999H211.916V49.1679H210.033V53.9553H209.402V49.1679Z" fill="white"/>
<path d="M215.448 52.868H212.828L212.376 53.9553H211.713L214.025 48.5106H214.259L216.571 53.9553H215.9L215.448 52.868ZM214.138 49.6628L213.071 52.3H215.205L214.138 49.6628Z" fill="white"/>
<path d="M221.504 48.5999V53.9553H220.874V49.1679H218.788C218.75 50.3959 218.672 51.3588 218.553 52.0566C218.435 52.749 218.262 53.2494 218.036 53.5577C217.815 53.8607 217.519 54.0119 217.146 54.0119C217.022 54.0119 216.918 53.993 216.831 53.9553V53.4036C216.842 53.409 216.866 53.4144 216.904 53.4198C216.947 53.4252 216.995 53.4279 217.05 53.4279C217.443 53.4279 217.72 53.0952 217.882 52.4299C218.049 51.7591 218.149 50.7502 218.181 49.4032L218.197 48.5999H221.504Z" fill="white"/>
<path d="M226.912 48.5999V53.9553H226.281V49.1679H224.195C224.158 50.3959 224.08 51.3588 223.961 52.0566C223.843 52.749 223.67 53.2494 223.444 53.5577C223.223 53.8607 222.926 54.0119 222.555 54.0119C222.431 54.0119 222.325 53.993 222.239 53.9553V53.4036C222.25 53.409 222.274 53.4144 222.312 53.4198C222.355 53.4252 222.404 53.4279 222.457 53.4279C222.851 53.4279 223.128 53.0952 223.29 52.4299C223.457 51.7591 223.557 50.7502 223.589 49.4032L223.606 48.5999H226.912Z" fill="white"/>
<path d="M230.792 54.0448C230.286 54.0448 229.82 53.923 229.394 53.6795C228.974 53.436 228.639 53.1033 228.391 52.6814C228.149 52.254 228.027 51.7861 228.027 51.2776C228.027 50.7637 228.149 50.2958 228.391 49.8738C228.639 49.4519 228.974 49.1192 229.394 48.8758C229.82 48.6323 230.286 48.5106 230.792 48.5106C231.294 48.5106 231.757 48.6323 232.183 48.8758C232.609 49.1192 232.945 49.4519 233.193 49.8738C233.442 50.2958 233.566 50.7637 233.566 51.2776C233.566 51.7915 233.442 52.2595 233.193 52.6814C232.945 53.1033 232.609 53.436 232.183 53.6795C231.757 53.923 231.294 54.0448 230.792 54.0448ZM230.801 53.4604C231.194 53.4604 231.552 53.3657 231.876 53.1764C232.199 52.9816 232.452 52.7192 232.635 52.3893C232.819 52.0539 232.91 51.6806 232.91 51.2695C232.91 50.8638 232.819 50.4959 232.635 50.166C232.452 49.8306 232.199 49.5682 231.876 49.3789C231.552 49.1896 231.194 49.0948 230.801 49.0948C230.402 49.0948 230.041 49.1896 229.718 49.3789C229.394 49.5682 229.141 49.8279 228.958 50.1578C228.774 50.4878 228.683 50.8584 228.683 51.2695C228.683 51.6806 228.774 52.0539 228.958 52.3893C229.141 52.7192 229.394 52.9816 229.718 53.1764C230.041 53.3657 230.402 53.4604 230.801 53.4604Z" fill="white"/>
<path d="M237.537 51.0099C237.866 51.1072 238.122 51.2803 238.305 51.5291C238.488 51.7726 238.58 52.0674 238.58 52.4136C238.58 52.7112 238.513 52.9762 238.378 53.2088C238.243 53.4414 238.046 53.6253 237.788 53.7606C237.534 53.8904 237.235 53.9553 236.89 53.9553H234.691V48.5999H236.527C236.99 48.5999 237.359 48.727 237.634 48.9813C237.909 49.2355 238.046 49.5601 238.046 49.955C238.046 50.1768 238 50.377 237.909 50.5554C237.823 50.734 237.699 50.8854 237.537 51.0099ZM235.322 49.1679V50.8313H236.462C236.763 50.8313 236.995 50.7556 237.157 50.6041C237.319 50.4526 237.399 50.2498 237.399 49.9956C237.399 49.7413 237.319 49.5411 237.157 49.3951C237.001 49.2436 236.769 49.1679 236.462 49.1679H235.322ZM236.826 53.3873C237.176 53.3873 237.448 53.2981 237.642 53.1195C237.836 52.9356 237.933 52.6949 237.933 52.3974C237.933 52.0999 237.836 51.8619 237.642 51.6833C237.448 51.4994 237.176 51.4074 236.826 51.4074H235.322V53.3873H236.826Z" fill="white"/>
</g>
<defs>
<clipPath id="clip0_49_419">
<rect width="239" height="69" fill="white"/>
</clipPath>
</defs>
</svg>
