<svg width="786" height="226" viewBox="0 0 786 226" fill="none" xmlns="http://www.w3.org/2000/svg">
<g clip-path="url(#clip0_2023_1092)">
<path d="M257.172 0H61.467C56.8746 0 52.8121 3.17813 51.7524 7.59219L0 219.82V220.527C0 222.998 1.94292 224.941 4.41573 225.117L5.65214 225.294C6.53528 225.47 7.41843 225.294 8.30157 224.941C79.8364 193.159 151.548 161.378 223.083 129.597C223.966 129.244 225.556 128.537 226.792 127.302C229.088 125.006 229.618 122.005 229.795 121.475C230.854 116.884 243.925 70.625 261.941 6.35627C262.824 3.17814 260.528 0 257.172 0Z" fill="#FF5555"/>
<path d="M121.962 53.5867H86.9899L91.7589 26.2195H192.084L187.315 53.5867H152.343L136.623 142.751H106.242L121.962 53.5867Z" fill="white"/>
<path d="M338.951 127.478H310.338L306.098 134.188H282.077L333.829 51.2031H340.718L363.15 134.188H340.894L338.951 127.478ZM331.003 92.1656L320.935 110.352H334.712L331.003 92.1656Z" fill="black"/>
<path d="M452.524 52.6157L438.217 134.188H417.022L427.973 71.861H409.603C406.6 88.1048 403.421 100.817 400.065 109.999C396.709 119.18 392.647 125.713 388.231 129.774C383.639 133.834 377.987 135.777 371.275 135.777C370.038 135.777 368.802 135.6 367.212 135.424C365.622 135.07 364.386 134.717 363.326 134.364L366.506 116.355C367.036 116.531 368.095 116.531 369.685 116.531C373.924 116.531 377.633 112.824 380.813 105.584C383.992 98.1688 386.995 86.3392 389.821 69.9188L392.823 52.7923L452.524 52.6157Z" fill="black"/>
<path d="M468.774 52.6157H489.969L485.554 78.0407H494.738C504.1 78.0407 511.518 80.5126 517.17 85.2798C522.646 90.047 525.472 96.4032 525.472 104.525C525.472 110.352 523.882 115.649 520.88 120.063C517.877 124.653 513.638 128.008 508.162 130.656C502.687 133.128 496.328 134.364 489.263 134.364H454.467L468.774 52.6157ZM492.972 115.649C496.328 115.649 498.801 114.766 500.744 113C502.687 111.234 503.57 108.763 503.57 105.761C503.57 102.936 502.687 100.641 501.097 98.8751C499.507 97.286 497.211 96.4032 494.385 96.4032H482.374L478.842 115.472L492.972 115.649Z" fill="black"/>
<path d="M607.604 52.6155L593.297 134.187H572.102L576.341 110.175H572.455C571.219 110.175 570.159 110.175 569.453 109.998L549.493 134.187H525.472L550.2 104.348C546.491 101.876 543.841 99.0515 541.898 95.3436C539.955 91.8124 539.072 87.7515 539.072 83.1608C539.072 77.1577 540.662 71.8608 543.841 67.0937C547.021 62.503 551.613 58.7952 557.442 56.3233C563.271 53.8515 569.982 52.439 577.577 52.439L607.604 52.6155ZM582.876 71.1546H573.515C569.629 71.1546 566.45 72.0374 564.154 73.9796C561.857 75.9218 560.621 78.3936 560.621 81.7483C560.621 84.7499 561.681 87.2218 563.8 88.9874C565.92 90.753 568.746 91.6358 572.279 91.6358H579.344L582.876 71.1546Z" fill="black"/>
<path d="M623.854 52.6157H645.05L639.928 82.4548H669.778L674.9 52.6157H696.096L681.789 134.188H660.593L666.245 101.524H636.395L630.743 134.188H609.547L623.854 52.6157Z" fill="black"/>
<path d="M721.354 130.656C715.172 127.302 710.226 122.534 706.693 116.531C703.161 110.528 701.395 103.642 701.395 96.2265C701.395 87.9281 703.514 80.5125 707.753 73.6265C711.992 66.7406 717.644 61.2671 724.886 57.3828C732.128 53.3218 740.076 51.3796 748.555 51.3796C757.033 51.3796 764.628 53.4984 770.986 57.5593C777.345 61.6203 782.114 67.4468 785.117 74.8625L767.807 85.1031C763.568 75.5687 756.68 70.8015 747.142 70.8015C742.549 70.8015 738.31 71.8609 734.778 73.9796C731.068 76.0984 728.242 78.9234 726.123 82.6312C724.003 86.339 722.943 90.5765 722.943 95.1671C722.943 101.523 724.886 106.644 728.595 110.352C732.305 114.236 737.427 116.178 743.786 116.178C748.025 116.178 752.087 115.119 755.62 113.177C759.152 111.234 762.508 108.056 765.688 103.819L780.701 115.472C776.285 121.828 770.81 126.948 764.275 130.303C757.563 133.834 750.321 135.6 742.373 135.6C734.601 135.777 727.536 134.011 721.354 130.656Z" fill="black"/>
<path d="M623.854 52.6156L609.547 134.187H630.743C632.686 123.241 634.629 112.293 636.572 101.523C646.463 101.523 656.354 101.523 666.245 101.7C667.482 95.3434 668.542 88.9875 669.778 82.4546H639.928C641.694 72.5671 643.46 62.6793 645.226 52.6152C637.985 52.6152 630.92 52.6156 623.854 52.6156Z" fill="#FF5555"/>
<path d="M607.604 52.6156L593.121 134.187H571.925L586.056 52.6152" fill="#FF5555"/>
<path d="M283.26 159.182H296.979V176.723H294.905V161.043H285.334V176.723H283.26V159.182Z" fill="black"/>
<path d="M301.824 159.182H307.992C309.128 159.182 310.111 159.404 310.943 159.847C311.795 160.272 312.45 160.874 312.911 161.654C313.372 162.416 313.602 163.284 313.602 164.258C313.602 165.251 313.372 166.137 312.911 166.916C312.45 167.696 311.795 168.307 310.943 168.75C310.111 169.175 309.128 169.388 307.992 169.388H303.898V176.723H301.824V159.182ZM307.939 167.528C309.055 167.528 309.915 167.235 310.518 166.65C311.139 166.048 311.448 165.26 311.448 164.285C311.448 163.328 311.139 162.549 310.518 161.946C309.915 161.344 309.055 161.043 307.939 161.043H303.898V167.528H307.939Z" fill="black"/>
<path d="M331.316 158.89V176.723H329.242V163.116L317.809 177.016H317.065V159.182H319.139V172.79L330.572 158.89H331.316Z" fill="black"/>
<path d="M336.148 159.182H347.396V161.043H338.222V166.411H345.241V168.272H338.222V174.863H347.714V176.723H336.148V159.182Z" fill="black"/>
<path d="M367.346 158.89V176.723H365.273V164.152L359.663 171.753H358.919L353.281 164.099V176.723H351.208V158.89H351.953L359.264 169.016L366.629 158.89H367.346Z" fill="black"/>
<path d="M392.055 159.182V176.723H389.981V169.654C389.397 169.919 388.724 170.114 387.961 170.238C387.217 170.345 386.481 170.398 385.755 170.398C383.556 170.398 381.855 169.84 380.65 168.723C379.444 167.607 378.841 165.933 378.841 163.7V159.182H380.915V163.567C380.915 165.286 381.332 166.544 382.166 167.341C382.997 168.139 384.213 168.537 385.808 168.537C386.516 168.537 387.244 168.475 387.987 168.351C388.75 168.227 389.414 168.032 389.981 167.767V159.182H392.055Z" fill="black"/>
<path d="M396.879 159.182H408.127V161.043H398.952V166.411H405.972V168.272H398.952V174.863H408.444V176.723H396.879V159.182Z" fill="black"/>
<path d="M411.938 159.182H418.106C419.242 159.182 420.226 159.404 421.058 159.847C421.909 160.272 422.564 160.874 423.025 161.654C423.486 162.416 423.718 163.284 423.718 164.258C423.718 165.251 423.486 166.137 423.025 166.916C422.564 167.696 421.909 168.307 421.058 168.75C420.226 169.175 419.242 169.388 418.106 169.388H414.012V176.723H411.938V159.182ZM418.053 167.528C419.171 167.528 420.03 167.235 420.632 166.65C421.254 166.048 421.563 165.26 421.563 164.285C421.563 163.328 421.254 162.549 420.632 161.946C420.03 161.344 419.171 161.043 418.053 161.043H414.012V167.528H418.053Z" fill="black"/>
<path d="M427.18 159.182H429.253V166.411H439.091V159.182H441.165V176.723H439.091V168.272H429.253V176.723H427.18V159.182Z" fill="black"/>
<path d="M446.003 159.182H448.077V166.092H451.932C453.119 166.092 454.158 166.323 455.043 166.783C455.929 167.226 456.602 167.855 457.063 168.67C457.542 169.468 457.782 170.38 457.782 171.408C457.782 172.435 457.542 173.357 457.063 174.172C456.602 174.969 455.929 175.598 455.043 176.059C454.158 176.502 453.119 176.723 451.932 176.723H446.003V159.182ZM451.906 174.863C453.093 174.863 454.015 174.544 454.672 173.906C455.327 173.268 455.654 172.444 455.654 171.434C455.654 170.407 455.327 169.574 454.672 168.936C454.015 168.298 453.093 167.979 451.906 167.979H448.077V174.863H451.906ZM461.265 159.182H463.339V176.723H461.265V159.182Z" fill="black"/>
<path d="M478.441 176.723L473.707 169.521L468.949 176.723H466.529L472.564 167.74L466.955 159.182H469.348L473.707 166.012L478.042 159.182H480.435L474.905 167.767L480.859 176.723H478.441Z" fill="black"/>
<path d="M505.769 158.89V176.723H503.695V163.116L492.264 177.016H491.518V159.182H493.592V172.79L505.025 158.89H505.769Z" fill="black"/>
<path d="M531.854 176.723H518.054V159.182H520.129V174.863H529.699V159.182H531.774V174.863H533.927V180.47H531.854V176.723Z" fill="black"/>
<path d="M546.496 167.076C547.577 167.395 548.42 167.962 549.022 168.777C549.626 169.574 549.926 170.54 549.926 171.674C549.926 172.648 549.705 173.516 549.262 174.278C548.819 175.04 548.172 175.642 547.321 176.085C546.487 176.51 545.503 176.723 544.369 176.723H537.138V159.182H543.174C544.698 159.182 545.911 159.599 546.816 160.431C547.72 161.264 548.172 162.327 548.172 163.621C548.172 164.347 548.02 165.003 547.72 165.587C547.436 166.172 547.028 166.668 546.496 167.076ZM539.212 161.043V166.491H542.96C543.953 166.491 544.716 166.243 545.247 165.747C545.779 165.251 546.044 164.586 546.044 163.754C546.044 162.921 545.779 162.265 545.247 161.787C544.733 161.291 543.97 161.043 542.96 161.043H539.212ZM544.158 174.863C545.309 174.863 546.205 174.57 546.842 173.986C547.48 173.383 547.8 172.595 547.8 171.62C547.8 170.646 547.48 169.866 546.842 169.281C546.205 168.679 545.309 168.378 544.158 168.378H539.212V174.863H544.158Z" fill="black"/>
<path d="M553.521 159.182H564.768V161.043H555.596V166.411H562.613V168.272H555.596V174.863H565.086V176.723H553.521V159.182Z" fill="black"/>
<path d="M572.835 161.043H566.667V159.182H581.103V161.043H574.909V176.723H572.835V161.043Z" fill="black"/>
<path d="M584.03 159.182H586.103V166.411H595.94V159.182H598.014V176.723H595.94V168.272H586.103V176.723H584.03V159.182Z" fill="black"/>
<path d="M602.853 159.182H604.927V166.092H608.783C609.97 166.092 611.006 166.323 611.893 166.783C612.78 167.226 613.453 167.855 613.914 168.67C614.392 169.468 614.631 170.38 614.631 171.408C614.631 172.435 614.392 173.357 613.914 174.172C613.453 174.969 612.78 175.598 611.893 176.059C611.006 176.502 609.97 176.723 608.783 176.723H602.853V159.182ZM608.756 174.863C609.943 174.863 610.865 174.544 611.52 173.906C612.177 173.268 612.504 172.444 612.504 171.434C612.504 170.407 612.177 169.574 611.52 168.936C610.865 168.298 609.943 167.979 608.756 167.979H604.927V174.863H608.756ZM618.114 159.182H620.188V176.723H618.114V159.182Z" fill="black"/>
<path d="M635.289 176.723L630.558 169.521L625.799 176.723H623.379L629.415 167.74L623.805 159.182H626.197L630.558 166.012L634.892 159.182H637.284L631.753 167.767L637.709 176.723H635.289Z" fill="black"/>
<path d="M664.507 158.89V176.723H662.434V164.152L656.824 171.753H656.079L650.442 164.099V176.723H648.369V158.89H649.112L656.425 169.016L663.788 158.89H664.507Z" fill="black"/>
<path d="M669.347 159.182H680.595V161.043H671.421V166.411H678.44V168.272H671.421V174.863H680.913V176.723H669.347V159.182Z" fill="black"/>
<path d="M688.661 161.043H682.492V159.182H696.929V161.043H690.735V176.723H688.661V161.043Z" fill="black"/>
<path d="M708.545 173.162H699.93L698.441 176.723H696.262L703.866 158.89H704.636L712.24 176.723H710.034L708.545 173.162ZM704.237 162.664L700.727 171.302H707.746L704.237 162.664Z" fill="black"/>
<path d="M728.461 159.182V176.723H726.388V161.043H719.527C719.404 165.065 719.146 168.218 718.755 170.504C718.367 172.772 717.8 174.411 717.055 175.421C716.329 176.413 715.354 176.908 714.13 176.908C713.722 176.908 713.377 176.847 713.093 176.723V174.916C713.128 174.934 713.208 174.951 713.333 174.969C713.474 174.987 713.633 174.996 713.812 174.996C715.105 174.996 716.018 173.906 716.549 171.727C717.099 169.53 717.427 166.225 717.533 161.813L717.586 159.182H728.461Z" fill="black"/>
<path d="M746.246 159.182V176.723H744.172V161.043H737.312C737.189 165.065 736.932 168.218 736.542 170.504C736.152 172.772 735.585 174.411 734.839 175.421C734.113 176.413 733.138 176.908 731.916 176.908C731.508 176.908 731.162 176.847 730.879 176.723V174.916C730.915 174.934 730.994 174.951 731.118 174.969C731.259 174.987 731.42 174.996 731.596 174.996C732.891 174.996 733.803 173.906 734.334 171.727C734.885 169.53 735.212 166.225 735.318 161.813L735.373 159.182H746.246Z" fill="black"/>
<path d="M759.006 177.016C757.34 177.016 755.807 176.617 754.406 175.82C753.025 175.022 751.925 173.933 751.11 172.551C750.312 171.151 749.913 169.618 749.913 167.953C749.913 166.27 750.312 164.737 751.11 163.355C751.925 161.973 753.025 160.883 754.406 160.086C755.807 159.289 757.34 158.89 759.006 158.89C760.656 158.89 762.18 159.289 763.58 160.086C764.979 160.883 766.087 161.973 766.903 163.355C767.719 164.737 768.127 166.27 768.127 167.953C768.127 169.636 767.719 171.169 766.903 172.551C766.087 173.933 764.979 175.022 763.58 175.82C762.18 176.617 760.656 177.016 759.006 177.016ZM759.034 175.102C760.327 175.102 761.505 174.792 762.57 174.172C763.633 173.534 764.465 172.675 765.068 171.594C765.672 170.495 765.972 169.273 765.972 167.926C765.972 166.597 765.672 165.393 765.068 164.312C764.465 163.213 763.633 162.354 762.57 161.734C761.505 161.114 760.327 160.803 759.034 160.803C757.722 160.803 756.535 161.114 755.471 161.734C754.406 162.354 753.574 163.204 752.972 164.285C752.368 165.366 752.068 166.58 752.068 167.926C752.068 169.273 752.368 170.495 752.972 171.594C753.574 172.675 754.406 173.534 755.471 174.172C756.535 174.792 757.722 175.102 759.034 175.102Z" fill="black"/>
<path d="M781.187 167.076C782.268 167.395 783.11 167.962 783.713 168.777C784.315 169.574 784.617 170.54 784.617 171.674C784.617 172.648 784.396 173.516 783.953 174.278C783.51 175.04 782.861 175.642 782.012 176.085C781.178 176.51 780.194 176.723 779.06 176.723H771.829V159.182H777.865C779.389 159.182 780.602 159.599 781.507 160.431C782.411 161.264 782.861 162.327 782.861 163.621C782.861 164.347 782.711 165.003 782.411 165.587C782.127 166.172 781.719 166.668 781.187 167.076ZM773.903 161.043V166.491H777.651C778.643 166.491 779.406 166.243 779.938 165.747C780.47 165.251 780.735 164.586 780.735 163.754C780.735 162.921 780.47 162.265 779.938 161.787C779.424 161.291 778.661 161.043 777.651 161.043H773.903ZM778.848 174.863C780 174.863 780.895 174.57 781.533 173.986C782.171 173.383 782.49 172.595 782.49 171.62C782.49 170.646 782.171 169.866 781.533 169.281C780.895 168.679 780 168.378 778.848 168.378H773.903V174.863H778.848Z" fill="black"/>
</g>
<defs>
<clipPath id="clip0_2023_1092">
<rect width="786" height="226" fill="white"/>
</clipPath>
</defs>
</svg>
