<svg aria-hidden="true" xmlns="http://www.w3.org/2000/svg" xmlns:xlink="http://www.w3.org/1999/xlink"><symbol viewBox="0 0 14 8" fill="none" id="icon-arrow" xmlns="http://www.w3.org/2000/svg">
<path d="M0.5 0.5L7 6.5L13.5 0.5" stroke="currentColor"/>
</symbol><symbol viewBox="0 0 25 26" fill="none" id="icon-arrow-line" xmlns="http://www.w3.org/2000/svg">
<path d="M24.3137 13.0002H1.68628M1.68628 13.0002L13 1.68652M1.68628 13.0002L13 24.3139" stroke="currentColor" stroke-width="2"/>
</symbol><symbol viewBox="0 0 18 18" fill="none" id="icon-arrow-rotate" xmlns="http://www.w3.org/2000/svg">
<path d="M1 17L17 1M17 1V17M17 1H1" stroke="currentColor" stroke-width="2"/>
</symbol><symbol viewBox="0 0 21 22" fill="none" id="icon-location" xmlns="http://www.w3.org/2000/svg">
<path d="M10.5 20C10.5 20 18 13.3913 18 8.43478C18 4.32867 14.6421 1 10.5 1C6.35786 1 3 4.32867 3 8.43478C3 13.3913 10.5 20 10.5 20Z" stroke="currentColor" stroke-width="2"/>
<path d="M12.8961 8.12515C12.8961 9.43683 11.8235 10.5002 10.5003 10.5002C9.17712 10.5002 8.10447 9.43683 8.10447 8.12515C8.10447 6.81347 9.17712 5.75015 10.5003 5.75015C11.8235 5.75015 12.8961 6.81347 12.8961 8.12515Z" stroke="currentColor" stroke-width="2"/>
</symbol><symbol viewBox="0 0 24 20" fill="none" id="icon-tg" xmlns="http://www.w3.org/2000/svg">
<path fill-rule="evenodd" clip-rule="evenodd" d="M9.02809 18.5689C9.56486 18.5689 9.81016 18.3376 10.1066 18.0579L12.7821 15.5378L18.2964 19.4844C19.3114 20.0269 20.0439 19.746 20.2967 18.5716L23.9171 2.04451C24.2878 0.604912 23.3507 -0.0480246 22.3797 0.378999L1.12058 8.31996C-0.33055 8.88379 -0.32209 9.66805 0.856072 10.0175L6.31164 11.667L18.9419 3.94804C19.5381 3.59778 20.0853 3.78609 19.6362 4.17224L9.40213 13.1188L9.40355 13.1198L9.02809 18.5689Z" fill="currentColor"/>
</symbol><symbol viewBox="0 0 24 24" fill="none" id="icon-wh" xmlns="http://www.w3.org/2000/svg">
<path fill-rule="evenodd" clip-rule="evenodd" d="M12.0502 23.7938H12.0453C10.0453 23.7931 8.08018 23.2937 6.33478 22.3462L0 24L1.69529 17.8374C0.649553 16.0338 0.0992912 13.9879 0.100187 11.8919C0.102809 5.33474 5.4635 0 12.0501 0C15.2468 0.00137329 18.2472 1.23989 20.5033 3.48784C22.7594 5.73568 24.0013 8.72361 24 11.9013C23.9974 18.4569 18.6388 23.7911 12.0502 23.7938ZM6.9927 20.4074L6.63002 20.1931L2.87087 21.1745L3.87425 17.5269L3.63809 17.1529C2.64386 15.5792 2.11875 13.7602 2.11952 11.8925C2.1217 6.44249 6.57731 2.00859 12.0559 2.00859C14.7088 2.00951 17.2026 3.03897 19.0778 4.90739C20.953 6.7758 21.9851 9.25924 21.9841 11.9005C21.9819 17.3508 17.5263 21.7852 12.052 21.7852H12.048C10.2657 21.7845 8.51765 21.308 6.9927 20.4074Z" fill="currentColor"/>
<path d="M18.0743 14.7293C18.0142 14.6296 17.8736 14.5619 17.6654 14.4618C17.6148 14.4375 17.5603 14.4113 17.5021 14.3822C17.2035 14.2335 15.7355 13.5147 15.4617 13.4154C15.1881 13.3163 14.989 13.2668 14.79 13.5641C14.5909 13.8616 14.0187 14.531 13.8445 14.7293C13.6703 14.9276 13.4962 14.9525 13.1977 14.8037C13.1489 14.7794 13.0824 14.7507 13.0003 14.7152C12.58 14.5338 11.7507 14.1758 10.7965 13.3288C9.90886 12.5408 9.30962 11.5678 9.13545 11.2703C8.96128 10.9728 9.11688 10.812 9.26636 10.6638C9.3558 10.5751 9.45851 10.4506 9.56124 10.3261C9.6128 10.2637 9.66436 10.2012 9.71425 10.1432C9.84113 9.99576 9.89611 9.88404 9.97087 9.73215C9.98407 9.70533 9.99788 9.67725 10.0128 9.64751C10.1123 9.4491 10.0626 9.27563 9.98793 9.12688C9.93799 9.02735 9.65411 8.33954 9.39718 7.71703C9.27013 7.4092 9.14967 7.11733 9.06734 6.92046C8.85334 6.40889 8.63642 6.41016 8.46242 6.41117C8.43933 6.41131 8.41701 6.41144 8.39554 6.41037C8.22157 6.40167 8.0223 6.39984 7.82327 6.39984C7.62423 6.39984 7.30073 6.47421 7.02705 6.77171C7.0095 6.79079 6.9899 6.8116 6.9686 6.83422C6.65762 7.16446 5.98202 7.88191 5.98202 9.25069C5.98202 10.7057 7.0408 12.1116 7.19881 12.3215L7.20122 12.3247C7.21099 12.3377 7.22851 12.3627 7.25355 12.3984C7.61108 12.9087 9.50275 15.6087 12.3019 16.8116C13.0143 17.1178 13.5704 17.3006 14.0041 17.4376C14.7194 17.6638 15.3703 17.6319 15.8847 17.5553C16.4585 17.47 17.6513 16.8365 17.9002 16.1424C18.1489 15.4482 18.1489 14.8532 18.0743 14.7293Z" fill="currentColor"/>
</symbol></svg>