<svg aria-hidden="true" xmlns="http://www.w3.org/2000/svg" xmlns:xlink="http://www.w3.org/1999/xlink"><symbol viewBox="0 0 14 8" fill="none" id="icon-arrow" xmlns="http://www.w3.org/2000/svg">
<path d="M0.5 0.5L7 6.5L13.5 0.5" stroke="currentColor"/>
</symbol><symbol viewBox="0 0 25 26" fill="none" id="icon-arrow-line" xmlns="http://www.w3.org/2000/svg">
<path d="M24.3137 13.0002H1.68628M1.68628 13.0002L13 1.68652M1.68628 13.0002L13 24.3139" stroke="currentColor" stroke-width="2"/>
</symbol><symbol viewBox="0 0 18 18" fill="none" id="icon-arrow-rotate" xmlns="http://www.w3.org/2000/svg">
<path d="M1 17L17 1M17 1V17M17 1H1" stroke="currentColor" stroke-width="2"/>
</symbol><symbol viewBox="0 0 14 30" fill="none" id="icon-arrow-w" xmlns="http://www.w3.org/2000/svg">
<path d="M13 29L1 15L13 1" stroke="currentColor"/>
</symbol><symbol viewBox="0 0 32 33" fill="none" id="icon-clock" xmlns="http://www.w3.org/2000/svg">
<path d="M16 2.09961C8.04744 2.09961 1.59998 8.54707 1.59998 16.4996C1.59998 24.4397 8.06059 30.8996 16 30.8996C23.9518 30.8996 30.4 24.4515 30.4 16.4996C30.4 8.55953 23.9401 2.09961 16 2.09961ZM23.4769 18.715H15.1692C15.0958 18.715 15.0253 18.6858 14.9734 18.6339C14.9215 18.582 14.8923 18.5115 14.8923 18.4381V6.8073C14.8923 6.73386 14.9215 6.66342 14.9734 6.61149C15.0253 6.55955 15.0958 6.53038 15.1692 6.53038H16.8307C16.9042 6.53038 16.9746 6.55955 17.0266 6.61149C17.0785 6.66342 17.1077 6.73386 17.1077 6.8073V16.4996H23.4769C23.5503 16.4996 23.6208 16.5288 23.6727 16.5807C23.7246 16.6327 23.7538 16.7031 23.7538 16.7765V18.4381C23.7538 18.5115 23.7246 18.582 23.6727 18.6339C23.6208 18.6858 23.5503 18.715 23.4769 18.715Z" fill="currentColor"/>
</symbol><symbol viewBox="0 0 21 22" fill="none" id="icon-location" xmlns="http://www.w3.org/2000/svg">
<path d="M10.5 20C10.5 20 18 13.3913 18 8.43478C18 4.32867 14.6421 1 10.5 1C6.35786 1 3 4.32867 3 8.43478C3 13.3913 10.5 20 10.5 20Z" stroke="currentColor" stroke-width="2"/>
<path d="M12.8961 8.12515C12.8961 9.43683 11.8235 10.5002 10.5003 10.5002C9.17712 10.5002 8.10447 9.43683 8.10447 8.12515C8.10447 6.81347 9.17712 5.75015 10.5003 5.75015C11.8235 5.75015 12.8961 6.81347 12.8961 8.12515Z" stroke="currentColor" stroke-width="2"/>
</symbol><symbol viewBox="0 0 32 32" fill="none" id="icon-mail" xmlns="http://www.w3.org/2000/svg">
<path d="M30.8571 4H1.14286C0.839753 4 0.549062 4.11493 0.334735 4.31952C0.120408 4.52411 0 4.80158 0 5.09091V26.9091C0 27.1984 0.120408 27.4759 0.334735 27.6805C0.549062 27.8851 0.839753 28 1.14286 28H30.8571C31.1602 28 31.4509 27.8851 31.6653 27.6805C31.8796 27.4759 32 27.1984 32 26.9091V5.09091C32 4.80158 31.8796 4.52411 31.6653 4.31952C31.4509 4.11493 31.1602 4 30.8571 4ZM16.7014 17.952C16.5009 18.1009 16.254 18.1817 16 18.1817C15.746 18.1817 15.4991 18.1009 15.2986 17.952L4.11071 9.64614L5.51357 7.92386L16 15.7089L26.4864 7.92386L27.8893 9.64614L16.7014 17.952Z" fill="currentColor"/>
</symbol><symbol viewBox="0 0 32 33" fill="none" id="icon-tel" xmlns="http://www.w3.org/2000/svg">
<path d="M31.1288 24.6529C30.7746 24.2557 29.524 23.0814 27.2249 21.5278C24.9089 19.9606 23.2009 18.9835 22.7109 18.7556C22.6678 18.7354 22.6202 18.728 22.5733 18.7342C22.5264 18.7404 22.482 18.7599 22.4449 18.7906C21.6557 19.4385 20.327 20.6285 20.2558 20.6928C19.7957 21.1078 19.7957 21.1078 19.4191 20.9785C18.7568 20.7499 16.6993 19.5999 14.9065 17.7084C13.1136 15.817 11.9648 13.5976 11.7476 12.9012C11.6235 12.5041 11.6235 12.5041 12.0191 12.0198C12.0801 11.9448 13.2114 10.5462 13.8268 9.71614C13.856 9.67706 13.8745 9.63033 13.8804 9.581C13.8863 9.53167 13.8792 9.48159 13.8601 9.43614C13.6436 8.9197 12.7153 7.12252 11.2265 4.68462C9.74851 2.26529 8.63427 0.948833 8.25697 0.575969C8.22235 0.541578 8.17955 0.517653 8.1331 0.506716C8.08664 0.495779 8.03824 0.498235 7.993 0.513825C6.67414 0.990895 5.40165 1.59963 4.1929 2.33172C3.02601 3.04575 1.92128 3.86681 0.891562 4.78533C0.855617 4.8175 0.828668 4.85936 0.813605 4.90642C0.798542 4.95349 0.795934 5.00398 0.806059 5.05248C0.947885 5.74821 1.6258 8.65255 3.72942 12.6755C5.8758 16.7813 7.36327 18.8849 10.5153 22.1914C13.6674 25.4979 15.7289 27.1579 19.6335 29.4172C23.4553 31.6316 26.2158 32.3459 26.8754 32.4937C26.9216 32.5043 26.9697 32.5015 27.0145 32.4856C27.0592 32.4698 27.0991 32.4415 27.1299 32.4037C28.0023 31.3198 28.7821 30.157 29.4602 28.9286C30.1555 27.6562 30.7338 26.3168 31.1872 24.9286C31.2017 24.8813 31.2039 24.8308 31.1937 24.7824C31.1834 24.7339 31.161 24.6892 31.1288 24.6529Z" fill="currentColor"/>
</symbol><symbol viewBox="0 0 24 20" fill="none" id="icon-tg" xmlns="http://www.w3.org/2000/svg">
<path fill-rule="evenodd" clip-rule="evenodd" d="M9.02809 18.5689C9.56486 18.5689 9.81016 18.3376 10.1066 18.0579L12.7821 15.5378L18.2964 19.4844C19.3114 20.0269 20.0439 19.746 20.2967 18.5716L23.9171 2.04451C24.2878 0.604912 23.3507 -0.0480246 22.3797 0.378999L1.12058 8.31996C-0.33055 8.88379 -0.32209 9.66805 0.856072 10.0175L6.31164 11.667L18.9419 3.94804C19.5381 3.59778 20.0853 3.78609 19.6362 4.17224L9.40213 13.1188L9.40355 13.1198L9.02809 18.5689Z" fill="currentColor"/>
</symbol><symbol viewBox="0 0 24 24" fill="none" id="icon-wh" xmlns="http://www.w3.org/2000/svg">
<path fill-rule="evenodd" clip-rule="evenodd" d="M12.0502 23.7938H12.0453C10.0453 23.7931 8.08018 23.2937 6.33478 22.3462L0 24L1.69529 17.8374C0.649553 16.0338 0.0992912 13.9879 0.100187 11.8919C0.102809 5.33474 5.4635 0 12.0501 0C15.2468 0.00137329 18.2472 1.23989 20.5033 3.48784C22.7594 5.73568 24.0013 8.72361 24 11.9013C23.9974 18.4569 18.6388 23.7911 12.0502 23.7938ZM6.9927 20.4074L6.63002 20.1931L2.87087 21.1745L3.87425 17.5269L3.63809 17.1529C2.64386 15.5792 2.11875 13.7602 2.11952 11.8925C2.1217 6.44249 6.57731 2.00859 12.0559 2.00859C14.7088 2.00951 17.2026 3.03897 19.0778 4.90739C20.953 6.7758 21.9851 9.25924 21.9841 11.9005C21.9819 17.3508 17.5263 21.7852 12.052 21.7852H12.048C10.2657 21.7845 8.51765 21.308 6.9927 20.4074Z" fill="currentColor"/>
<path d="M18.0743 14.7293C18.0142 14.6296 17.8736 14.5619 17.6654 14.4618C17.6148 14.4375 17.5603 14.4113 17.5021 14.3822C17.2035 14.2335 15.7355 13.5147 15.4617 13.4154C15.1881 13.3163 14.989 13.2668 14.79 13.5641C14.5909 13.8616 14.0187 14.531 13.8445 14.7293C13.6703 14.9276 13.4962 14.9525 13.1977 14.8037C13.1489 14.7794 13.0824 14.7507 13.0003 14.7152C12.58 14.5338 11.7507 14.1758 10.7965 13.3288C9.90886 12.5408 9.30962 11.5678 9.13545 11.2703C8.96128 10.9728 9.11688 10.812 9.26636 10.6638C9.3558 10.5751 9.45851 10.4506 9.56124 10.3261C9.6128 10.2637 9.66436 10.2012 9.71425 10.1432C9.84113 9.99576 9.89611 9.88404 9.97087 9.73215C9.98407 9.70533 9.99788 9.67725 10.0128 9.64751C10.1123 9.4491 10.0626 9.27563 9.98793 9.12688C9.93799 9.02735 9.65411 8.33954 9.39718 7.71703C9.27013 7.4092 9.14967 7.11733 9.06734 6.92046C8.85334 6.40889 8.63642 6.41016 8.46242 6.41117C8.43933 6.41131 8.41701 6.41144 8.39554 6.41037C8.22157 6.40167 8.0223 6.39984 7.82327 6.39984C7.62423 6.39984 7.30073 6.47421 7.02705 6.77171C7.0095 6.79079 6.9899 6.8116 6.9686 6.83422C6.65762 7.16446 5.98202 7.88191 5.98202 9.25069C5.98202 10.7057 7.0408 12.1116 7.19881 12.3215L7.20122 12.3247C7.21099 12.3377 7.22851 12.3627 7.25355 12.3984C7.61108 12.9087 9.50275 15.6087 12.3019 16.8116C13.0143 17.1178 13.5704 17.3006 14.0041 17.4376C14.7194 17.6638 15.3703 17.6319 15.8847 17.5553C16.4585 17.47 17.6513 16.8365 17.9002 16.1424C18.1489 15.4482 18.1489 14.8532 18.0743 14.7293Z" fill="currentColor"/>
</symbol></svg>